<?xml version="1.0" encoding="utf-8"?>
<!-- Generator: Adobe Illustrator 21.0.2, SVG Export Plug-In . SVG Version: 6.00 Build 0)  -->
<svg version="1.1" xmlns="http://www.w3.org/2000/svg" xmlns:xlink="http://www.w3.org/1999/xlink" x="0px" y="0px"
	 viewBox="0 0 1190.6 841.9" style="enable-background:new 0 0 1190.6 841.9;" xml:space="preserve">
<style type="text/css">
	.st0{display:none;}
	.st1{display:inline;fill:none;stroke:#231F20;stroke-miterlimit:10;}
	.st2{fill:#231F20;}
</style>
<g id="Layer_1">
</g>
<g id="Layer_3" class="st0">
	
		<rect x="914.2" y="301.9" transform="matrix(4.485485e-11 -1 1 4.485485e-11 612.2243 1244.4346)" class="st1" width="28.3" height="28.3"/>
	
		<rect x="914.2" y="269.4" transform="matrix(4.491880e-11 -1 1 4.491880e-11 644.7273 1211.9315)" class="st1" width="28.3" height="28.3"/>
	
		<rect x="914.2" y="237.8" transform="matrix(4.485485e-11 -1 1 4.485485e-11 676.319 1180.3398)" class="st1" width="28.3" height="28.3"/>
	
		<rect x="947.1" y="301.9" transform="matrix(4.491880e-11 -1 1 4.491880e-11 645.1603 1277.3705)" class="st1" width="28.3" height="28.3"/>
	
		<rect x="947.1" y="269.4" transform="matrix(4.491880e-11 -1 1 4.491880e-11 677.6633 1244.8676)" class="st1" width="28.3" height="28.3"/>
	
		<rect x="947.1" y="237.8" transform="matrix(4.491880e-11 -1 1 4.491880e-11 709.255 1213.2759)" class="st1" width="28.3" height="28.3"/>
	
		<rect x="1027.8" y="302.4" transform="matrix(4.491880e-11 -1 1 4.491880e-11 725.4114 1358.533)" class="st1" width="28.3" height="28.3"/>
	
		<rect x="1027.8" y="269.9" transform="matrix(4.485485e-11 -1 1 4.485485e-11 757.9144 1326.0299)" class="st1" width="28.3" height="28.3"/>
	
		<rect x="1027.8" y="238.3" transform="matrix(4.491880e-11 -1 1 4.491880e-11 789.5061 1294.4382)" class="st1" width="28.3" height="28.3"/>
	
		<rect x="1060.7" y="302.4" transform="matrix(4.491880e-11 -1 1 4.491880e-11 758.3475 1391.469)" class="st1" width="28.3" height="28.3"/>
	
		<rect x="1060.7" y="269.9" transform="matrix(4.491880e-11 -1 1 4.491880e-11 790.8505 1358.9659)" class="st1" width="28.3" height="28.3"/>
	
		<rect x="1060.7" y="238.3" transform="matrix(4.491880e-11 -1 1 4.491880e-11 822.4421 1327.3743)" class="st1" width="28.3" height="28.3"/>
	
		<rect x="1030.1" y="484.9" transform="matrix(4.491880e-11 -1 1 4.491880e-11 545.1734 1543.3606)" class="st1" width="28.3" height="28.3"/>
	
		<rect x="1030.1" y="452.4" transform="matrix(4.485485e-11 -1 1 4.485485e-11 577.6764 1510.8575)" class="st1" width="28.3" height="28.3"/>
	
		<rect x="1030.1" y="420.8" transform="matrix(4.491880e-11 -1 1 4.491880e-11 609.2681 1479.2659)" class="st1" width="28.3" height="28.3"/>
	
		<rect x="1063" y="484.9" transform="matrix(4.491880e-11 -1 1 4.491880e-11 578.1094 1576.2965)" class="st1" width="28.3" height="28.3"/>
	
		<rect x="1063" y="452.4" transform="matrix(4.491880e-11 -1 1 4.491880e-11 610.6124 1543.7936)" class="st1" width="28.3" height="28.3"/>
	
		<rect x="1063" y="420.8" transform="matrix(4.491880e-11 -1 1 4.491880e-11 642.2041 1512.2019)" class="st1" width="28.3" height="28.3"/>
	
		<rect x="916.5" y="483.8" transform="matrix(4.491880e-11 -1 1 4.491880e-11 432.6289 1428.6195)" class="st1" width="28.3" height="28.3"/>
	
		<rect x="916.5" y="451.3" transform="matrix(4.491880e-11 -1 1 4.491880e-11 465.1319 1396.1165)" class="st1" width="28.3" height="28.3"/>
	
		<rect x="916.5" y="419.7" transform="matrix(4.491880e-11 -1 1 4.491880e-11 496.7236 1364.5248)" class="st1" width="28.3" height="28.3"/>
	
		<rect x="949.4" y="483.8" transform="matrix(4.491880e-11 -1 1 4.491880e-11 465.5649 1461.5555)" class="st1" width="28.3" height="28.3"/>
	
		<rect x="949.4" y="451.3" transform="matrix(4.491880e-11 -1 1 4.491880e-11 498.0679 1429.0525)" class="st1" width="28.3" height="28.3"/>
	
		<rect x="949.4" y="419.7" transform="matrix(4.491880e-11 -1 1 4.491880e-11 529.6595 1397.4608)" class="st1" width="28.3" height="28.3"/>
</g>
<g id="Layer_2" class="st0">
</g>
<g id="Layer_4">
	<g>
		<path class="st2" d="M785.5,810.2H626V597.8h84.9V174h-55.2V59.6h264.1v43.7h2.7V59.6h86V174h-86v-44.1h-2.7V174h-49.4v2.6h138.2
			v346H750.4V386.8h-4.5v211h39.6v60.3h32.8v-2.6h-29.8V541.1h86v114.4h-29.8v2.6h64.5v-2.6h-31.8V541.1h86v114.4h-27.7v2.6h60.5
			v-2.6h-29.8V541.1h86v114.4H1023v2.6h29.8v4.3h2.1v-29.8h114.4v86h-114.4v-29.8h-2.1v4.3H1023v1.9h29.8v114.4h-86V695.1h29.8v-1.9
			h-60.5v1.9h27.7v114.4h-86V695.1h31.8v-1.9h-64.5v1.9h29.8v114.4h-86V695.1h29.8v-1.9h-32.8V810.2z M627,809.2h157.5v-117h34.8
			v3.9h-29.8v112.4h84V696.1h-29.8v-3.9h66.5v3.9h-31.8v112.4h84V696.1h-27.7v-3.9h62.5v3.9h-29.8v112.4h84V696.1H1022v-3.9h29.8
			v-4.3h4.1v29.8h112.4v-84h-112.4v29.8h-4.1v-4.3H1022v-4.6h29.8V542.1h-84v112.4h29.8v4.6h-62.5v-4.6h27.7V542.1h-84v112.4h31.8
			v4.6h-66.5v-4.6h29.8V542.1h-84v112.4h29.8v4.6h-34.8v-60.3h-39.6v-213h6.5v135.8h256.2v-344H869.4V173h49.4v-44.1h4.7V173h84
			V60.6h-84v43.7h-4.7V60.6H656.7V173h55.2v425.8H627V809.2z M751.4,335.8h-6.5V173h74.4v4.6h-68V335.8z M745.9,334.8h4.5V176.7h68
			V174h-72.4V334.8z"/>
	</g>
</g>
</svg>
